<?xml version="1.0" standalone="no"?>
<!DOCTYPE svg PUBLIC "-//W3C//DTD SVG 20010904//EN"
 "http://www.w3.org/TR/2001/REC-SVG-20010904/DTD/svg10.dtd">
<svg version="1.0" xmlns="http://www.w3.org/2000/svg"
 width="512.000000pt" height="512.000000pt" viewBox="0 0 512.000000 512.000000"
 preserveAspectRatio="xMidYMid meet">
<metadata>
Created by potrace 1.11, written by Peter Selinger 2001-2013
</metadata>
<g transform="translate(0.000000,512.000000) scale(0.100000,-0.100000)"
fill="#000000" stroke="none">
<path d="M4072 5008 c-149 -15 -287 -67 -410 -155 -42 -29 -645 -625 -1598
-1577 -1491 -1491 -1531 -1532 -1543 -1581 -7 -27 -32 -122 -57 -210 -59 -208
-95 -337 -194 -690 -45 -159 -99 -354 -121 -433 -45 -158 -45 -178 1 -223 38
-39 60 -37 232 12 79 22 168 47 198 55 60 16 235 66 315 89 28 8 106 30 175
49 69 19 199 55 290 81 205 57 379 105 384 105 1 0 685 683 1520 1517 883 884
1540 1549 1572 1592 167 224 217 481 143 750 -39 145 -113 267 -229 381 -181
177 -427 263 -678 238z m258 -233 c286 -87 473 -338 472 -635 -1 -126 -51
-276 -127 -374 -44 -58 -127 -146 -137 -146 -3 0 -212 206 -463 457 l-457 458
74 71 c102 97 233 166 358 187 53 9 227 -2 280 -18z m-665 -585 l190 -190
-1261 -1261 -1260 -1260 -155 76 c-85 42 -200 100 -257 128 l-103 51 1323
1323 c728 728 1325 1323 1328 1323 3 0 91 -86 195 -190z m-600 -2049 c-729
-728 -1327 -1322 -1329 -1320 -3 3 -61 118 -129 257 l-124 253 1260 1260 1260
1260 193 -192 193 -193 -1324 -1325z m-2170 -673 c289 -141 389 -192 397 -208
5 -8 55 -112 112 -230 57 -118 115 -239 130 -268 19 -38 23 -54 14 -56 -67
-22 -441 -127 -465 -132 -12 -2 -50 -13 -85 -24 -35 -11 -71 -20 -80 -20 -15
0 -388 364 -388 379 0 4 15 60 34 126 19 66 57 203 86 305 61 221 57 210 67
210 4 0 85 -37 178 -82z m-233 -1009 c-4 -4 -61 -22 -127 -39 -66 -18 -128
-35 -139 -38 -14 -4 -17 -1 -12 14 14 46 76 266 76 272 0 4 47 -40 105 -98 58
-57 101 -107 97 -111z"/>
</g>
</svg>
